<?xml version="1.0" encoding="UTF-8"?>
<svg width="1139px" height="287px" viewBox="0 0 1139 287" version="1.1" xmlns="http://www.w3.org/2000/svg" xmlns:xlink="http://www.w3.org/1999/xlink">
    <!-- Generator: Sketch 55.2 (78181) - https://sketchapp.com -->
    <title>heroBg</title>
    <desc>Created with Sketch.</desc>
    <defs>
        <linearGradient x1="30.2273176%" y1="51.1753482%" x2="100%" y2="52.0490116%" id="linearGradient-1">
            <stop stop-color="#37F3BF" stop-opacity="0.25" offset="0%"></stop>
            <stop stop-color="#58E920" stop-opacity="0.5" offset="100%"></stop>
        </linearGradient>
    </defs>
    <g id="Website" stroke="none" stroke-width="1" fill="none" fill-rule="evenodd">
        <g id="Cubetree_V1" transform="translate(-301.000000, -358.000000)">
            <g id="heroBg" transform="translate(300.500000, 357.500000)">
                <path d="M0.673936769,287.5 C204.5,201.368076 313.473917,256.991736 468.332255,158.185858 C623.190592,59.3799808 812.008206,24 1139.5,68.5 C1139.5,97.8971067 1139.5,170.897107 1139.5,287.5 C380.282625,287.5 0.673936769,287.5 0.673936769,287.5 Z" id="Path" fill="url(#linearGradient-1)"></path>
                <rect id="Rectangle" fill="#74D5DE" fill-rule="nonzero" x="907.5" y="41.9286992" width="49.0991327" height="71.5" rx="24.5495663"></rect>
                <path d="M932.300974,139.476301 L932.300974,68.6428997" id="Path" stroke="#FED385" stroke-width="1.845" stroke-linecap="round" stroke-linejoin="round"></path>
                <path d="M236,216.8525 C210.86,216.8525 190.5,227.5875 190.5,240.8525 L281.525,240.8525 C281.51,227.5875 261.135,216.8525 236,216.8525 Z" id="Path" fill="#74D5DE" fill-rule="nonzero"></path>
                <path d="M646.865,277.465 C640.59,277.465 635.5,281.845 635.5,287.25 L658.235,287.25 C658.235,281.845 653.145,277.465 646.865,277.465 Z" id="Path" fill="#74D5DE" fill-rule="nonzero"></path>
                <path d="M508.58,225.22 C498.58,225.22 490.5,228.475 490.5,232.485 L526.645,232.485 C526.645,228.475 518.565,225.22 508.58,225.22 Z" id="Path" fill="#74D5DE" fill-rule="nonzero"></path>
                <path d="M1107.58,280 C1097.58,280 1089.5,283.255 1089.5,287.265 L1125.655,287.265 C1125.655,283.255 1117.565,280 1107.58,280 Z" id="Path" fill="#74D5DE" fill-rule="nonzero"></path>
                <rect id="Rectangle" fill="#74D5DE" fill-rule="nonzero" x="641.5" y="24.5" width="43.835" height="63.83" rx="21.915"></rect>
                <path d="M663.42,104.99 L663.42,44.415" id="Path" stroke="#FED385" stroke-width="1.195" stroke-linecap="round" stroke-linejoin="round"></path>
                <path d="M1107.65782,79.702359 C1106.41229,79.275748 1102.33711,73.8849365 1102.33711,67.4872635 C1102.33711,60.0543876 1110.19958,45.9851752 1110.9469,40.973242 C1111.42273,37.7855929 1113.56921,9.70235897 1129.86993,9.70235897 C1138.75865,9.70235897 1139.5,27.0815356 1139.5,34.8545069 C1139.5,53.0123232 1113.09785,68.4792086 1113.09785,77.9108912 C1111.32923,78.6361598 1109.51131,79.2348236 1107.65782,79.702359 Z" id="Path" fill="#74D5DE" fill-rule="nonzero"></path>
                <path d="M1109.66259,79.0281346 C1109.66259,64.4666788 1120.52924,37.9362492 1130.08771,28.600032" id="Path" stroke="#56CAD8" stroke-width="1.2" stroke-linecap="round"></path>
                <path d="M1103.07305,78.8134329 C1104.4394,77.6348567 1096.78865,40.3598887 1090.15266,33.7638574 C1082.93339,26.5945187 1076.99856,22.7991039 1075.03892,20.4459468 C1071.56312,16.2729881 1069.3498,0.536 1054.05028,0.536 C1050.00317,0.536 1040.46669,3.88195774 1038.75076,18.0428499 C1038.18944,22.6912342 1037.16867,29.8026429 1046.84299,40.1081928 C1053.35911,47.0518042 1061.50927,44.6606929 1069.47564,52.1836044 C1075.21072,57.599062 1074.40769,65.7671941 1079.76322,72.6688562 C1084.04804,78.1821955 1095.1726,85.6192108 1103.07305,78.8134329 Z" id="Path" fill="#74D5DE" fill-rule="nonzero"></path>
                <path d="M1101.19532,79.702359 C1101.19532,70.3476604 1071.68497,28.1266677 1059.87724,22.087963" id="Path" stroke="#56CAD8" stroke-width="1.2" stroke-linecap="round"></path>
                <path d="M1103.34756,85.095161 C1102.51063,84.8461828 1100.23533,81.9454373 1100.23533,78.2077652 C1100.23533,74.6080809 1101.24624,69.3585414 1101.24624,64.4884686 C1101.24624,61.7797062 1100.23533,60.8197904 1100.23533,57.5965732 C1100.23533,52.4595238 1105.1039,50.895161 1106.81075,50.895161 C1109.32303,50.895161 1110.66691,53.0444725 1110.66691,54.1828726 C1110.66691,55.7712333 1110.21695,56.9771275 1110.21695,58.7349733 C1110.21695,62.1711719 1111.41685,62.6016341 1111.29086,65.5623744 C1110.91589,74.2181151 1107.32221,82.6803728 1104.16348,84.6002044 L1103.34756,85.095161 Z" id="Path" fill="#56CAD8" fill-rule="nonzero"></path>
                <path d="M1103.34756,85.095161 C1103.12708,83.430307 1102.19716,69.2865477 1104.83243,64.1329998" id="Path" stroke="#74D5DE" stroke-width="1.2" stroke-linecap="round" stroke-linejoin="round"></path>
            </g>
        </g>
    </g>
</svg>