<?xml version="1.0" encoding="UTF-8"?>
<svg width="277px" height="427px" viewBox="0 0 277 427" version="1.1" xmlns="http://www.w3.org/2000/svg" xmlns:xlink="http://www.w3.org/1999/xlink">
    <!-- Generator: Sketch 55.2 (78181) - https://sketchapp.com -->
    <title>heroCubetree</title>
    <desc>Created with Sketch.</desc>
    <g id="Website" stroke="none" stroke-width="1" fill="none" fill-rule="evenodd">
        <g id="Cubetree_V1" transform="translate(-928.000000, -167.000000)">
            <g id="heroCubetree" transform="translate(928.000000, 167.500000)">
                <path d="M88.0910549,332.260312 L172.954319,378.131393 C173.44017,378.394009 173.621137,379.000762 173.35852,379.486613 C173.267711,379.654613 173.130695,379.793098 172.963673,379.885694 L90.2620469,425.734567 C89.9637442,425.899943 89.6017237,425.901873 89.3016744,425.739688 L4.43841057,379.868607 C3.95255979,379.605991 3.77159272,378.999238 4.0342093,378.513387 C4.12501842,378.345387 4.26203436,378.206902 4.42905683,378.114306 L87.1306824,332.265433 C87.4289852,332.100057 87.7910057,332.098127 88.0910549,332.260312 Z" id="Rectangle" fill-opacity="0.09" fill="#89C024" transform="translate(88.696365, 379.000000) scale(-1, 1) translate(-88.696365, -379.000000) "></path>
                <path d="M84.8091833,365.581619 C84.7361535,365.542144 84.6544442,365.521474 84.5714286,365.521474 C84.2952862,365.521474 84.0714286,365.745332 84.0714286,366.021474 L84.0714286,376.605142 C84.0714286,376.788796 84.1721115,376.957668 84.3336739,377.044998 L133.762245,403.762589 C133.835275,403.802063 133.916984,403.822733 134,403.822733 C134.276142,403.822733 134.5,403.598876 134.5,403.322733 L134.5,392.739065 C134.5,392.555411 134.399317,392.386539 134.237755,392.29921 L84.8091833,365.581619 Z" id="Rectangle" stroke="#9F754A" fill="#76543E"></path>
                <path d="M134.95204,365.581619 C134.879011,365.542144 134.797301,365.521474 134.714286,365.521474 C134.438143,365.521474 134.214286,365.745332 134.214286,366.021474 L134.214286,376.605142 C134.214286,376.788796 134.314969,376.957668 134.476531,377.044998 L183.905102,403.762589 C183.978132,403.802063 184.059842,403.822733 184.142857,403.822733 C184.419,403.822733 184.642857,403.598876 184.642857,403.322733 L184.642857,392.739065 C184.642857,392.555411 184.542174,392.386539 184.380612,392.29921 L134.95204,365.581619 Z" id="Rectangle" stroke="#9F754A" fill="#846749" transform="translate(159.428571, 384.672104) scale(-1, 1) translate(-159.428571, -384.672104) "></path>
                <path d="M133.958119,338.044375 C133.808094,337.963282 133.627084,337.964248 133.477933,338.046935 L85.4114631,364.694459 C85.3279518,364.740756 85.2594439,364.809999 85.2140393,364.893999 C85.082731,365.136924 85.1732146,365.440301 85.4161399,365.571609 L134.756167,392.241339 C134.906191,392.322432 135.087202,392.321467 135.236353,392.238779 L183.302823,365.591256 C183.386334,365.544958 183.454842,365.475715 183.500246,365.391715 C183.631555,365.14879 183.541071,364.845414 183.298146,364.714105 L133.958119,338.044375 Z" id="Rectangle" stroke="#9F754A" fill="#8D744C" transform="translate(134.357143, 365.142857) scale(-1, 1) translate(-134.357143, -365.142857) "></path>
                <path d="M25.6645447,137.579561 C25.5919594,137.540705 25.5109024,137.520375 25.4285714,137.520375 C25.1524291,137.520375 24.9285714,137.744233 24.9285714,138.020375 L24.9285714,238.134996 C24.9285714,238.319375 25.0300441,238.488792 25.1925982,238.575809 L33.1067063,242.812334 C33.1792915,242.85119 33.2603486,242.87152 33.3426795,242.87152 C33.6188219,242.87152 33.8426795,242.647663 33.8426795,242.37152 L33.8426795,142.2569 C33.8426795,142.07252 33.7412069,141.903103 33.5786528,141.816086 L25.6645447,137.579561 Z" id="Rectangle-Copy-4" stroke="#9F754A" fill="#76543E"></path>
                <path d="M34.2929385,137.756651 C34.2203533,137.717795 34.1392962,137.697465 34.0569653,137.697465 C33.7808229,137.697465 33.5569653,137.921322 33.5569653,138.197465 L33.5569653,238.134996 C33.5569653,238.319375 33.6584379,238.488792 33.820992,238.575809 L41.7351001,242.812334 C41.8076854,242.85119 41.8887424,242.87152 41.9710734,242.87152 C42.2472158,242.87152 42.4710734,242.647663 42.4710734,242.37152 L42.4710734,142.433989 C42.4710734,142.24961 42.3696007,142.080193 42.2070466,141.993176 L34.2929385,137.756651 Z" id="Rectangle-Copy-5" stroke="#9F754A" fill="#846749" transform="translate(38.014019, 190.284492) scale(-1, 1) translate(-38.014019, -190.284492) "></path>
                <path d="M25.6686559,228.23461 C25.595049,228.194317 25.512485,228.173198 25.4285714,228.173198 C25.1524291,228.173198 24.9285714,228.397056 24.9285714,228.673198 L24.9285714,239.250297 C24.9285714,239.433 25.0282241,239.601156 25.1884869,239.688885 L133.759915,299.121241 C133.833522,299.161534 133.916086,299.182653 134,299.182653 C134.276142,299.182653 134.5,298.958795 134.5,298.682653 L134.5,288.105554 C134.5,287.922851 134.400347,287.754695 134.240085,287.666966 L25.6686559,228.23461 Z" id="Rectangle-Copy-2" stroke="#9F754A" fill="#76543E"></path>
                <path d="M124.956476,227.384257 C124.809129,227.308352 124.633744,227.3104 124.488209,227.389725 L33.6268793,276.914512 C33.5389992,276.962412 33.4675169,277.035584 33.4216824,277.124558 C33.2952232,277.370043 33.3917123,277.671563 33.6371969,277.798022 L42.7288828,282.481522 C42.8762298,282.557427 43.0516155,282.555378 43.1971497,282.476054 L134.05848,232.951267 C134.14636,232.903367 134.217842,232.830195 134.263677,232.74122 C134.390136,232.495736 134.293647,232.194216 134.048162,232.067757 L124.956476,227.384257 Z" id="Rectangle-Copy-6" stroke="#9F754A" fill="#846749" transform="translate(83.842680, 254.932889) scale(-1, 1) translate(-83.842680, -254.932889) "></path>
                <path d="M126.321865,204.129173 C126.24928,204.090317 126.168223,204.069986 126.085892,204.069986 C125.80975,204.069986 125.585892,204.293844 125.585892,204.569986 L125.585892,366.463974 C125.585892,366.648354 125.687365,366.817771 125.849919,366.904788 L133.764027,371.141313 C133.836612,371.180168 133.917669,371.200499 134,371.200499 C134.276142,371.200499 134.5,370.976641 134.5,370.700499 L134.5,208.806511 C134.5,208.622131 134.398527,208.452715 134.235973,208.365697 L126.321865,204.129173 Z" id="Rectangle-Copy" stroke="#9F754A" fill="#76543E"></path>
                <path d="M134.950259,204.129173 C134.877674,204.090317 134.796617,204.069986 134.714286,204.069986 C134.438143,204.069986 134.214286,204.293844 134.214286,204.569986 L134.214286,366.463974 C134.214286,366.648354 134.315758,366.817771 134.478312,366.904788 L142.392421,371.141313 C142.465006,371.180168 142.546063,371.200499 142.628394,371.200499 C142.904536,371.200499 143.128394,370.976641 143.128394,370.700499 L143.128394,208.806511 C143.128394,208.622131 143.026921,208.452715 142.864367,208.365697 L134.950259,204.129173 Z" id="Rectangle-Copy" stroke="#9F754A" fill="#846749" transform="translate(138.671340, 287.635243) scale(-1, 1) translate(-138.671340, -287.635243) "></path>
                <path d="M134.953624,237.392145 C134.880201,237.352116 134.797911,237.331141 134.714286,237.331141 C134.438143,237.331141 134.214286,237.554999 134.214286,237.831141 L134.214286,248.410359 C134.214286,248.593367 134.314268,248.761753 134.474948,248.849354 L180.960485,274.192983 C181.033907,274.233013 181.116197,274.253987 181.199822,274.253987 C181.475965,274.253987 181.699822,274.03013 181.699822,273.753987 L181.699822,263.17477 C181.699822,262.991762 181.59984,262.823376 181.43916,262.735774 L134.953624,237.392145 Z" id="Rectangle-Copy-3" stroke="#9F754A" fill="#76543E"></path>
                <path d="M174.571593,231.718526 C174.424375,231.642687 174.249157,231.644662 174.103685,231.723799 L134.123851,253.472847 C134.035809,253.520742 133.964194,253.59399 133.918295,253.683089 C133.791836,253.928573 133.888325,254.230093 134.13381,254.356553 L143.224304,259.039439 C143.371523,259.115277 143.546741,259.113302 143.692213,259.034166 L183.672047,237.285117 C183.760088,237.237223 183.831704,237.163974 183.877602,237.074876 C184.004062,236.829391 183.907572,236.527871 183.662088,236.401412 L174.571593,231.718526 Z" id="Rectangle-Copy-7" stroke="#9F754A" fill="#846749" transform="translate(158.897949, 245.378982) scale(-1, 1) translate(-158.897949, -245.378982) "></path>
                <path d="M61.6663261,28.2374114 C61.5932964,28.1979367 61.5115871,28.1772667 61.4285714,28.1772667 C61.1524291,28.1772667 60.9285714,28.4011243 60.9285714,28.6772667 L60.9285714,103.059584 C60.9285714,103.243238 61.0292544,103.412111 61.1908167,103.49944 L110.619388,130.217031 C110.692418,130.256505 110.774127,130.277175 110.857143,130.277175 C111.133285,130.277175 111.357143,130.053318 111.357143,129.777175 L111.357143,55.3948577 C111.357143,55.2112037 111.25646,55.0423316 111.094898,54.9550024 L61.6663261,28.2374114 Z" id="Rectangle" stroke="#C2EB20" fill="#89C024"></path>
                <path d="M111.809183,28.2374114 C111.736154,28.1979367 111.654444,28.1772667 111.571429,28.1772667 C111.295286,28.1772667 111.071429,28.4011243 111.071429,28.6772667 L111.071429,103.059584 C111.071429,103.243238 111.172112,103.412111 111.333674,103.49944 L160.762245,130.217031 C160.835275,130.256505 160.916984,130.277175 161,130.277175 C161.276142,130.277175 161.5,130.053318 161.5,129.777175 L161.5,55.3948577 C161.5,55.2112037 161.399317,55.0423316 161.237755,54.9550024 L111.809183,28.2374114 Z" id="Rectangle" stroke="#C2EB20" fill="#ADD802" transform="translate(136.285714, 79.227221) scale(-1, 1) translate(-136.285714, -79.227221) "></path>
                <path d="M110.815262,0.700167674 C110.665237,0.61907497 110.484227,0.620040097 110.335075,0.702727975 L62.2686059,27.3502511 C62.1850947,27.3965488 62.1165867,27.4657913 62.0711822,27.5497915 C61.9398739,27.7927169 62.0303574,28.0960932 62.2732828,28.2274015 L111.61331,54.8971316 C111.763334,54.9782243 111.944345,54.9772592 112.093496,54.8945713 L160.159966,28.2470481 C160.243477,28.2007504 160.311985,28.131508 160.357389,28.0475078 C160.488698,27.8045824 160.398214,27.5012061 160.155289,27.3698978 L110.815262,0.700167674 Z" id="Rectangle" stroke="#C2EB20" fill="#CFE60F" transform="translate(111.214286, 27.798650) scale(-1, 1) translate(-111.214286, -27.798650) "></path>
                <path d="M1.23775469,106.665983 C1.16472496,106.626508 1.08301563,106.605838 1,106.605838 C0.723857625,106.605838 0.5,106.829696 0.5,107.105838 L0.5,140.048037 C0.5,140.231691 0.600682929,140.400563 0.76224531,140.487892 L50.1908167,167.205483 C50.2638465,167.244958 50.3455558,167.265628 50.4285714,167.265628 C50.7047138,167.265628 50.9285714,167.04177 50.9285714,166.765628 L50.9285714,133.823429 C50.9285714,133.639775 50.8278885,133.470903 50.6663261,133.383574 L1.23775469,106.665983 Z" id="Rectangle" stroke="#C2EB20" fill="#89C024"></path>
                <path d="M51.3806118,106.665983 C51.3075821,106.626508 51.2258728,106.605838 51.1428571,106.605838 C50.8667148,106.605838 50.6428571,106.829696 50.6428571,107.105838 L50.6428571,140.048037 C50.6428571,140.231691 50.7435401,140.400563 50.9051025,140.487892 L100.333674,167.205483 C100.406704,167.244958 100.488413,167.265628 100.571429,167.265628 C100.847571,167.265628 101.071429,167.04177 101.071429,166.765628 L101.071429,133.823429 C101.071429,133.639775 100.970746,133.470903 100.809183,133.383574 L51.3806118,106.665983 Z" id="Rectangle" stroke="#C2EB20" fill="#ADD802" transform="translate(75.857143, 136.935733) scale(-1, 1) translate(-75.857143, -136.935733) "></path>
                <path d="M50.3866903,79.1287391 C50.2366657,79.0476464 50.0556554,79.0486115 49.9065041,79.1312994 L1.8400345,105.778823 C1.75652326,105.82512 1.68801529,105.894363 1.64261073,105.978363 C1.51130244,106.221288 1.60178598,106.524665 1.84471137,106.655973 L51.1847383,133.325703 C51.3347629,133.406796 51.5157731,133.405831 51.6649245,133.323143 L99.7313941,106.67562 C99.8149053,106.629322 99.8834133,106.560079 99.9288178,106.476079 C100.060126,106.233154 99.9696426,105.929778 99.7267172,105.798469 L50.3866903,79.1287391 Z" id="Rectangle" stroke="#C2EB20" fill="#CFE60F" transform="translate(50.785714, 106.227221) scale(-1, 1) translate(-50.785714, -106.227221) "></path>
                <path d="M59.5862737,98.8209463 C59.5131042,98.7812751 59.4311887,98.7604972 59.3479566,98.7604972 C59.0718142,98.7604972 58.8479566,98.9843548 58.8479566,99.2604972 L58.8479566,197.527417 C58.8479566,197.710842 58.9483906,197.879542 59.1096395,197.966968 L117.806456,229.791402 C117.879625,229.831073 117.961541,229.851851 118.044773,229.851851 C118.320915,229.851851 118.544773,229.627994 118.544773,229.351851 L118.544773,131.084931 C118.544773,130.901507 118.444339,130.732807 118.28309,130.645381 L59.5862737,98.8209463 Z" id="Rectangle" stroke="#C2EB20" fill="#89C024"></path>
                <path d="M119.003897,87.9425059 C118.931164,87.9034453 118.84989,87.8830024 118.767332,87.8830024 C118.49119,87.8830024 118.267332,88.1068601 118.267332,88.3830024 L118.267332,187.00062 C118.267332,187.184759 118.368542,187.353995 118.530768,187.441116 L198.04915,230.145746 C198.121883,230.184806 198.203156,230.205249 198.285714,230.205249 C198.561857,230.205249 198.785714,229.981392 198.785714,229.705249 L198.785714,131.087632 C198.785714,130.903493 198.684504,130.734257 198.522279,130.647135 L119.003897,87.9425059 Z" id="Rectangle" stroke="#C2EB20" fill="#ADD802" transform="translate(158.526523, 159.044126) scale(-1, 1) translate(-158.526523, -159.044126) "></path>
                <path d="M118.000838,56.4518568 C117.85481,56.3748645 117.680191,56.3749126 117.534205,56.4519855 L59.5459888,87.0667764 C59.4569119,87.1138044 59.3841162,87.1866403 59.3371373,87.2757431 C59.2083475,87.520013 59.3019626,87.8224376 59.5462326,87.9512274 L138.921291,129.801235 C139.067319,129.878227 139.241938,129.878179 139.387924,129.801106 L197.376141,99.1863154 C197.465217,99.1392874 197.538013,99.0664515 197.584992,98.9773487 C197.713782,98.7330788 197.620167,98.4306541 197.375897,98.3018643 L118.000838,56.4518568 Z" id="Rectangle" stroke="#C2EB20" fill="#CFE60F" transform="translate(128.461065, 93.126546) scale(-1, 1) translate(-128.461065, -93.126546) "></path>
                <path d="M174.807402,169.657337 C174.734817,169.618481 174.65376,169.598151 174.571429,169.598151 C174.295286,169.598151 174.071429,169.822008 174.071429,170.098151 L174.071429,270.212771 C174.071429,270.397151 174.172901,270.566568 174.335455,270.653585 L182.249563,274.89011 C182.322149,274.928966 182.403206,274.949296 182.485537,274.949296 C182.761679,274.949296 182.985537,274.725438 182.985537,274.449296 L182.985537,174.334675 C182.985537,174.150296 182.884064,173.980879 182.72151,173.893862 L174.807402,169.657337 Z" id="Rectangle-Copy-8" stroke="#9F754A" fill="#76543E"></path>
                <path d="M183.435796,169.834427 C183.36321,169.795571 183.282153,169.77524 183.199822,169.77524 C182.92368,169.77524 182.699822,169.999098 182.699822,170.27524 L182.699822,270.212771 C182.699822,270.397151 182.801295,270.566568 182.963849,270.653585 L190.877957,274.89011 C190.950543,274.928966 191.0316,274.949296 191.113931,274.949296 C191.390073,274.949296 191.613931,274.725438 191.613931,274.449296 L191.613931,174.511765 C191.613931,174.327385 191.512458,174.157969 191.349904,174.070951 L183.435796,169.834427 Z" id="Rectangle-Copy-9" stroke="#9F754A" fill="#846749" transform="translate(187.156876, 222.362268) scale(-1, 1) translate(-187.156876, -222.362268) "></path>
                <path d="M142.141681,162.319698 C142.067568,162.278674 141.984248,162.257153 141.899539,162.257153 C141.623396,162.257153 141.399539,162.481011 141.399539,162.757153 L141.399539,204.84955 C141.399539,205.031412 141.498283,205.198932 141.657396,205.287005 L200.988015,238.128062 C201.062128,238.169085 201.145449,238.190607 201.230158,238.190607 C201.506301,238.190607 201.730158,237.966749 201.730158,237.690607 L201.730158,195.598209 C201.730158,195.416348 201.631413,195.248827 201.472301,195.160754 L142.141681,162.319698 Z" id="Rectangle-Copy-10" stroke="#C2EB20" fill="#89C024"></path>
                <path d="M202.262212,156.318404 C202.190182,156.280308 202.109933,156.260394 202.028449,156.260394 C201.752307,156.260394 201.528449,156.484251 201.528449,156.760394 L201.528449,198.876244 C201.528449,199.061522 201.630904,199.231611 201.794686,199.318233 L275.251983,238.16896 C275.324013,238.207056 275.404263,238.226971 275.485747,238.226971 C275.761889,238.226971 275.985747,238.003113 275.985747,237.726971 L275.985747,195.611121 C275.985747,195.425842 275.883292,195.255754 275.71951,195.169131 L202.262212,156.318404 Z" id="Rectangle-Copy-11" stroke="#C2EB20" fill="#ADD802" transform="translate(238.757098, 197.243682) scale(-1, 1) translate(-238.757098, -197.243682) "></path>
                <path d="M201.698968,123.350134 C201.55007,123.27204 201.37189,123.274011 201.224756,123.35538 L142.766064,155.684623 C142.680487,155.731949 142.610667,155.803331 142.565246,155.889933 C142.436985,156.134481 142.531254,156.436703 142.775802,156.564964 L216.574343,195.270944 C216.723242,195.349039 216.901421,195.347068 217.048556,195.265698 L275.507248,162.936456 C275.592824,162.88913 275.662644,162.817748 275.708065,162.731145 C275.836326,162.486597 275.742057,162.184376 275.497509,162.056115 L201.698968,123.350134 Z" id="Rectangle-Copy-12" stroke="#C2EB20" fill="#CFE60F" transform="translate(209.136656, 159.310539) scale(-1, 1) translate(-209.136656, -159.310539) "></path>
            </g>
        </g>
    </g>
</svg>