<svg version="1" xmlns="http://www.w3.org/2000/svg" width="466.667" height="466.667" viewBox="0 0 350.000000 350.000000"><path d="M133.5 23.2C116.8 41 101.4 63.3 92.2 83c-4.1 8.7-9.8 24.6-10.7 30.2-.3 1.7-.8 3.4-1 3.8-.2.3-.7 3.3-1 6.5-.4 3.3-.9 6.9-1.1 8-.7 3.6-.7 19.9.1 26 3.1 25.5 14.6 50.5 33.3 72.4 4.3 5 18.2 18.8 25.5 25.2l3.8 3.4v39.2c0 38.6 0 39.2 2.1 39.8 1.1.4 2.5.2 3.1-.4.9-.9 1.2-11.9 1.3-38.4.1-20.5.2-37.5.3-37.9 0-.3 1.8-.1 3.9.5 2 .6 10.5 1.1 18.7 1 13.3 0 16-.3 24-2.7 30.2-9 50.5-29.6 64.1-64.8 4.2-10.8 8.3-27.2 10.5-41.3.6-3.9 1.2-8.1 1.5-9.5.2-1.4.7-6.4 1-11.3.6-9.4.8-8.9-4.6-8.9-2.8 0-21.5 1.4-21.9 1.6-.3.2-2.9.6-5.7 1-11.8 1.4-31.9 7.8-44.7 14.2-17.4 8.8-33.8 24.9-42.1 41.3-8.1 15.9-11.1 30.5-11 53.9 0 16.1-.2 16.1-5.7 1-5.8-15.8-8.3-36.5-5.8-48.9 1.6-8.5 1.9-9.4 4.1-14.9 9.4-23.6 29.8-42.3 61.1-56 5.8-2.5 7.7-3.8 7.7-5.3 0-2.9-6.5-21.7-10.5-30.5-7-15-16.9-29.9-36-53.8C149.8 18.9 145.2 14 144 14c-1 0-5.6 4.1-10.5 9.2z"/></svg>