<?xml version="1.0" encoding="utf-8"?>
<!-- Generator: Adobe Illustrator 24.0.1, SVG Export Plug-In . SVG Version: 6.00 Build 0)  -->
<svg version="1.1" xmlns="http://www.w3.org/2000/svg" xmlns:xlink="http://www.w3.org/1999/xlink" x="0px" y="0px"
	 viewBox="0 0 1000 350" style="enable-background:new 0 0 1000 350;" xml:space="preserve">
<style type="text/css">
	.st0{display:none;}
	.st1{display:inline;}
	.st2{font-family:'SulphurPoint-Regular';}
	.st3{font-size:240px;}
	.st4{letter-spacing:-12;}
	.st5{font-family:'Karla-Regular';}
	.st6{letter-spacing:-33;}
	.st7{display:inline;fill:none;}
	.st8{fill:#E6E6E6;}
	.st9{font-family:'SulphurPoint-Bold';}
	.st10{font-size:56px;}
	.st11{letter-spacing:26;}
	.st12{fill:#ADD802;}
	.st13{fill:#FFFFFF;}
	.st14{fill:none;}
	.st15{display:none;fill:#333333;}
	.st16{fill:#333333;}
</style>
<g id="BG" class="st0">
	<rect x="0" class="st1" width="1000" height="350"/>
</g>
<g id="text" class="st0">
	<text transform="matrix(1 0 0 1 41.7266 621.2402)" class="st1 st2 st3 st4">Cubetree</text>
	<text transform="matrix(1 0 0 1 41.7266 372.5859)" class="st1 st2 st3 st4">Cubetree</text>
	<text transform="matrix(1 0 0 1 66.2041 119.1328)" class="st1"><tspan x="0" y="0" class="st5 st3 st4">C</tspan><tspan x="135.1" y="0" class="st5 st3 st6">u</tspan><tspan x="247" y="0" class="st5 st3 st4">betree</tspan></text>
	<text transform="matrix(1 0 0 1 66.2041 -129.5205)" class="st1"><tspan x="0" y="0" class="st5 st3 st4">C</tspan><tspan x="135.1" y="0" class="st5 st3 st6">u</tspan><tspan x="247" y="0" class="st5 st3 st4">betree</tspan></text>
</g>
<g id="light" class="st0">
	<rect x="63.3" y="247.9" class="st7" width="873.4" height="51.3"/>
	<text transform="matrix(1 0 0 1 211.5181 285.0703)" class="st8 st9 st10 st11">Marketplace</text>
	<g id="market_1_" class="st1">
		<path class="st8" d="M249.5,285.1v-29.2l-11.1,16h-3.8l-11-16v29.2h-5v-37.2h5.5l12.4,18l12.4-18h5.6v37.2H249.5z"/>
		<path class="st8" d="M309.3,285.1v-4.3c-1.2,1.4-2.6,2.5-4.1,3.3c-1.6,0.8-3.2,1.2-5,1.2c-1.9,0-3.8-0.4-5.5-1.1
			c-1.7-0.7-3.2-1.7-4.5-3c-1.3-1.3-2.3-2.8-3.1-4.5c-0.7-1.7-1.1-3.6-1.1-5.5c0-1.9,0.4-3.7,1.1-5.5c0.7-1.7,1.7-3.3,3.1-4.6
			c1.3-1.3,2.8-2.3,4.5-3c1.7-0.7,3.5-1.1,5.5-1.1c1.8,0,3.5,0.4,5.1,1.1c1.6,0.7,2.9,1.8,4.1,3.1v-3.7h5v27.3H309.3z M296.7,262.9
			c-1.1,0.5-2.1,1.1-2.9,1.9c-0.8,0.8-1.5,1.8-1.9,2.9c-0.5,1.1-0.7,2.3-0.7,3.6c0,1.2,0.2,2.4,0.7,3.5c0.5,1.1,1.1,2.1,1.9,2.9
			c0.8,0.8,1.8,1.5,2.9,1.9c1.1,0.5,2.3,0.7,3.6,0.7s2.4-0.2,3.5-0.7c1.1-0.5,2.1-1.1,2.9-1.9c0.8-0.8,1.5-1.8,1.9-2.9
			c0.5-1.1,0.7-2.3,0.7-3.5c0-1.2-0.2-2.4-0.7-3.6c-0.5-1.1-1.1-2.1-1.9-2.9c-0.8-0.8-1.8-1.5-2.9-1.9c-1.1-0.5-2.3-0.7-3.5-0.7
			S297.8,262.4,296.7,262.9z"/>
		<path class="st8" d="M359,262.4c-0.9-0.4-1.7-0.6-2.4-0.6c-1.5,0-2.7,0.5-3.7,1.6c-1,1.1-1.6,2.4-1.6,3.9v17.8h-4.8v-17.8
			c0-2,0.5-3.9,1.5-5.5c1-1.7,2.4-3,4.2-3.9c1.3-0.6,2.8-1,4.3-1c1.2,0,2.4,0.2,3.5,0.7c1.1,0.4,2.3,1.2,3.5,2.2L359,262.4z"/>
		<path class="st8" d="M407.6,285.1l-8.5-10.4v10.4h-4.9v-37.2h4.9v16.1l7.6-7.2h7.3l-13.3,12.3l13.3,16H407.6z"/>
		<path class="st8" d="M447.1,273.2c0,0.9,0.3,1.8,1,2.8c0.7,1,1.4,1.8,2.3,2.5c1.6,1.2,3.4,1.8,5.5,1.8c3.3,0,6-1.6,8.1-4.8
			l4.3,2.5c-1.5,2.4-3.2,4.2-5.4,5.4c-2.1,1.3-4.5,1.9-7,1.9c-1.9,0-3.7-0.4-5.4-1.1c-1.7-0.7-3.2-1.7-4.5-3.1
			c-1.3-1.3-2.3-2.8-3.1-4.5c-0.7-1.7-1.1-3.5-1.1-5.4s0.4-3.7,1.1-5.5s1.7-3.3,3.1-4.6c1.3-1.3,2.8-2.3,4.5-3
			c1.7-0.7,3.6-1.1,5.5-1.1s3.7,0.4,5.5,1.1c1.7,0.7,3.2,1.7,4.5,3c2.8,2.8,4.1,6.1,4.1,9.9c0,0.7-0.1,1.4-0.2,2.1H447.1z
			 M451.5,262.7c-1.3,0.7-2.4,1.6-3.2,2.7c-0.8,1.1-1.2,2.3-1.2,3.5h17.5c0-1.2-0.4-2.4-1.2-3.5c-0.8-1.1-1.9-2-3.2-2.7
			c-1.3-0.7-2.8-1-4.3-1C454.3,261.7,452.9,262.1,451.5,262.7z"/>
		<path class="st8" d="M508.8,262.1v23h-4.8v-23h-4.2v-5h4.2v-9.2h4.8v9.2h4.2v5H508.8z"/>
		<path class="st8" d="M553.5,284.5c-1.4-0.7-2.7-1.8-3.9-3.3V297h-5v-39.3h5v3.9c1.2-1.4,2.5-2.6,4.1-3.4c1.6-0.9,3.3-1.3,5-1.3
			c1.9,0,3.7,0.4,5.5,1.1c1.7,0.7,3.2,1.8,4.5,3.1c1.3,1.3,2.3,2.9,3.1,4.6c0.7,1.7,1.1,3.6,1.1,5.5c0,1.9-0.4,3.8-1.1,5.5
			c-0.7,1.7-1.7,3.2-3.1,4.6c-1.3,1.3-2.8,2.3-4.5,3.1c-1.7,0.7-3.6,1.1-5.5,1.1C556.6,285.6,554.9,285.2,553.5,284.5z M555.2,262.8
			c-1.1,0.5-2.1,1.1-2.9,2c-0.8,0.9-1.5,1.9-2,3c-0.5,1.1-0.7,2.3-0.7,3.6c0,1.2,0.2,2.4,0.7,3.5c0.5,1.1,1.1,2.1,2,3
			c0.8,0.9,1.8,1.5,2.9,2c1.1,0.5,2.3,0.7,3.5,0.7c1.2,0,2.4-0.2,3.5-0.7s2.1-1.2,2.9-2c0.8-0.9,1.5-1.8,1.9-3s0.7-2.3,0.7-3.5
			c0-1.2-0.2-2.4-0.7-3.6c-0.5-1.1-1.1-2.1-1.9-3c-0.8-0.9-1.8-1.5-2.9-2c-1.1-0.5-2.3-0.7-3.5-0.7
			C557.5,262.1,556.4,262.3,555.2,262.8z"/>
		<path class="st8" d="M604.5,285.1v-37.2h4.5v37.2H604.5z"/>
		<path class="st8" d="M663.8,285.1v-4.3c-1.2,1.4-2.6,2.5-4.1,3.3c-1.6,0.8-3.2,1.2-5,1.2c-1.9,0-3.8-0.4-5.5-1.1
			c-1.7-0.7-3.2-1.7-4.5-3c-1.3-1.3-2.3-2.8-3.1-4.5c-0.7-1.7-1.1-3.6-1.1-5.5c0-1.9,0.4-3.7,1.1-5.5c0.7-1.7,1.7-3.3,3.1-4.6
			s2.8-2.3,4.5-3c1.7-0.7,3.5-1.1,5.5-1.1c1.8,0,3.5,0.4,5.1,1.1s2.9,1.8,4.1,3.1v-3.7h5v27.3H663.8z M651.1,262.9
			c-1.1,0.5-2.1,1.1-2.9,1.9c-0.8,0.8-1.5,1.8-1.9,2.9c-0.5,1.1-0.7,2.3-0.7,3.6c0,1.2,0.2,2.4,0.7,3.5s1.1,2.1,1.9,2.9
			c0.8,0.8,1.8,1.5,2.9,1.9c1.1,0.5,2.3,0.7,3.6,0.7c1.2,0,2.4-0.2,3.5-0.7c1.1-0.5,2.1-1.1,2.9-1.9c0.8-0.8,1.5-1.8,1.9-2.9
			s0.7-2.3,0.7-3.5c0-1.2-0.2-2.4-0.7-3.6c-0.5-1.1-1.1-2.1-1.9-2.9c-0.8-0.8-1.8-1.5-2.9-1.9c-1.1-0.5-2.3-0.7-3.5-0.7
			C653.4,262.2,652.2,262.4,651.1,262.9z"/>
		<path class="st8" d="M707.9,284.3c-1.7-0.7-3.2-1.7-4.5-3.1c-1.3-1.3-2.3-2.8-3-4.5c-0.7-1.7-1.1-3.6-1.1-5.5s0.4-3.7,1.1-5.5
			c0.7-1.7,1.7-3.2,3-4.5c1.3-1.3,2.8-2.3,4.5-3.1c1.7-0.7,3.5-1.1,5.4-1.1c4.4,0,8.1,1.9,11.2,5.6l-4.4,2.5
			c-1.9-2.1-4.2-3.1-6.8-3.1c-1.2,0-2.4,0.2-3.5,0.7c-1.1,0.5-2.1,1.1-2.9,1.9c-0.8,0.8-1.5,1.8-2,2.9c-0.5,1.1-0.7,2.3-0.7,3.5
			s0.2,2.4,0.7,3.5c0.5,1.1,1.1,2.1,2,2.9c0.8,0.8,1.8,1.5,2.9,1.9c1.1,0.5,2.3,0.7,3.5,0.7c2.6,0,4.9-1,6.8-3.1l4.4,2.5
			c-3.1,3.7-6.8,5.6-11.2,5.6C711.4,285.4,709.6,285,707.9,284.3z"/>
		<path class="st8" d="M759.2,273.2c0,0.9,0.3,1.8,1,2.8c0.7,1,1.4,1.8,2.3,2.5c1.6,1.2,3.4,1.8,5.5,1.8c3.3,0,6-1.6,8.1-4.8
			l4.3,2.5c-1.5,2.4-3.2,4.2-5.4,5.4c-2.1,1.3-4.5,1.9-7,1.9c-1.9,0-3.7-0.4-5.4-1.1c-1.7-0.7-3.2-1.7-4.5-3.1
			c-1.3-1.3-2.3-2.8-3.1-4.5c-0.7-1.7-1.1-3.5-1.1-5.4s0.4-3.7,1.1-5.5c0.7-1.7,1.7-3.3,3.1-4.6c1.3-1.3,2.8-2.3,4.5-3
			c1.7-0.7,3.6-1.1,5.5-1.1c1.9,0,3.7,0.4,5.5,1.1c1.7,0.7,3.2,1.7,4.5,3c2.8,2.8,4.1,6.1,4.1,9.9c0,0.7-0.1,1.4-0.2,2.1H759.2z
			 M763.6,262.7c-1.3,0.7-2.4,1.6-3.2,2.7c-0.8,1.1-1.2,2.3-1.2,3.5h17.5c0-1.2-0.4-2.4-1.2-3.5s-1.9-2-3.2-2.7s-2.8-1-4.3-1
			S765,262.1,763.6,262.7z"/>
	</g>
	<g id="tree_1_" class="st1">
		<g>
			<line class="st12" x1="137.8" y1="196" x2="137.8" y2="177.4"/>
			<g>
				<path class="st12" d="M138.5,196c0-5.5,0-10.9,0-16.4c0-0.8,0-1.5,0-2.3c0-1-1.5-1-1.5,0c0,5.5,0,10.9,0,16.4c0,0.8,0,1.5,0,2.3
					C137,197,138.5,197,138.5,196L138.5,196z"/>
			</g>
		</g>
		<g>
			<path class="st12" d="M168.7,144.8c0,0-35.5-1.5-30.8,32.4C137.9,177.2,165.8,186,168.7,144.8z"/>
			<g>
				<path class="st12" d="M168.7,144.5c-4-0.2-8.3,0.5-12.1,1.6c-7.3,2.1-14,6.5-17.2,13.6c-2.5,5.5-2.6,11.7-1.8,17.6
					c0,0.1,0.1,0.2,0.3,0.3c3.1,1,6.7,1,9.9,0.5c7.3-1.2,13-6.1,16.4-12.6c3.2-6.4,4.5-13.6,5-20.7c0-0.5-0.7-0.5-0.8,0
					c-0.7,10-3,21.9-11.4,28.5c-4.3,3.4-9.9,4.7-15.4,4.1c-0.8-0.1-1.5-0.2-2.3-0.3c-0.2,0-1-0.1-1.2-0.3c0,0-0.1,0-0.1,0
					c0,0,0.2-0.5,0.2-0.5c0-0.4-0.1-0.9-0.1-1.3c-0.1-1.5-0.2-3-0.2-4.5c0.1-2.5,0.4-5.1,1.1-7.5c2.3-7.8,8.5-13,16-15.6
					c2.8-1,5.8-1.6,8.7-1.9c1.6-0.2,3.2-0.1,4.8-0.3c0.1,0,0.2,0,0.2,0C169.1,145.2,169.1,144.5,168.7,144.5z"/>
			</g>
		</g>
		<g>
			<path class="st12" d="M137.8,177.4c-35.7-28.3,0-59.6,0-59.6c9.8,11.9,11.8,15.8,14,23.8C122,153.4,137.8,177.4,137.8,177.4z"/>
			<g>
				<path class="st12" d="M138.1,177.1c-5.6-4.5-10.7-9.9-13.5-16.7c-2.1-5-2.7-10.5-1.9-15.9c1.4-8.4,5.9-16.1,11.5-22.4
					c1.2-1.4,2.5-2.8,3.9-4c-0.2,0-0.4,0-0.5,0c3.5,4.2,7.1,8.5,9.8,13.3c1.9,3.3,3.1,6.7,4.2,10.3c0.1-0.2,0.2-0.3,0.3-0.5
					c-7.9,3.2-15.9,8.5-17.9,17.3c-1.2,5.3-0.2,10.8,2,15.7c0.5,1.1,1,2.2,1.7,3.3C137.7,178,138.4,177.6,138.1,177.1
					c-5-7.7-5.8-18.6,0.3-26c3.5-4.3,8.5-7.1,13.6-9.2c0.2-0.1,0.3-0.2,0.3-0.5c-1-3.7-2.3-7.2-4.2-10.5c-2.8-4.8-6.4-9.2-9.9-13.4
					c-0.1-0.2-0.4-0.1-0.5,0c-4,3.5-7.4,8-10.2,12.6c-5.2,8.7-7.6,19-4.2,28.8c2.6,7.6,8.2,13.8,14.4,18.7
					C137.9,177.9,138.4,177.4,138.1,177.1z"/>
			</g>
		</g>
	</g>
	<g class="st1">
		<path class="st13" d="M103.4,201.8c-12.3-7.2-22.1-17-29.3-29.3c-7.2-12.3-10.8-25.8-10.8-40.6c0-14.7,3.6-28.3,10.8-40.7
			c7.2-12.4,17-22.2,29.4-29.5c12.4-7.3,25.9-10.9,40.4-10.9c11.8,0,23.1,2.4,33.8,7.3c10.7,4.9,19.8,11.9,27.4,21l-12.5,10.6
			c-6.1-7-13.4-12.5-22-16.4c-8.6-3.9-17.5-5.9-26.8-5.9c-11.5,0-22.2,2.9-32,8.8c-9.8,5.8-17.6,13.7-23.4,23.6
			c-5.8,9.9-8.6,20.6-8.6,32.2s2.9,22.2,8.6,32s13.6,17.6,23.4,23.4s20.5,8.6,32,8.6c9.3,0,18.2-2,26.8-5.9
			c8.6-3.9,15.9-9.4,22-16.4l12.5,10.6c-7.5,9-16.6,15.9-27.4,20.9c-10.7,5-22,7.4-33.8,7.4C129.2,212.6,115.7,209,103.4,201.8z"/>
		<path class="st13" d="M236.2,205.7c-7.3-4.2-13.1-10-17.4-17.3c-4.3-7.3-6.5-15.2-6.5-23.9V91.1h16.6v73.4
			c0,5.6,1.4,10.8,4.2,15.6c2.8,4.8,6.6,8.6,11.4,11.4c4.8,2.8,10,4.2,15.6,4.2c5.6,0,10.8-1.4,15.6-4.2c4.8-2.8,8.6-6.6,11.4-11.4
			c2.8-4.8,4.2-10,4.2-15.6V91.1h16.3v118.8h-16.3v-11.5c-4,4.5-8.7,7.9-14,10.2c-5.4,2.3-11.1,3.5-17.2,3.5
			C251.5,212.1,243.5,210,236.2,205.7z"/>
		<path class="st13" d="M335.7,51.8v61.4c11-14.9,26-22.3,44.9-22.3c11,0,21.2,2.7,30.5,8.2c9.3,5.4,16.6,12.8,22.1,22.2
			c5.4,9.4,8.2,19.5,8.2,30.4c0,10.9-2.7,21-8.2,30.4c-5.4,9.4-12.8,16.8-22.1,22.2c-9.3,5.4-19.4,8.2-30.5,8.2
			c-18.2,0-33.2-7.8-44.9-23.5v22.3h-16.1V51.8H335.7z M342.2,173.8c4,6.8,9.4,12.2,16.2,16.2c6.8,4,14.2,6,22.2,6
			c8,0,15.4-2,22.1-6c6.7-4,12.1-9.4,16.1-16.2c4-6.8,6-14.2,6-22.2c0-8-2-15.4-6-22.1c-4-6.7-9.4-12.1-16.1-16.1
			c-6.7-4-14.1-6-22.1-6c-8,0-15.4,2-22.2,6c-6.8,4-12.2,9.4-16.2,16.1c-4,6.7-6,14.1-6,22.1C336.2,159.6,338.2,167,342.2,173.8z"/>
		<path class="st13" d="M461,160c1.9,10.2,7,18.8,15.1,25.6c8.2,6.8,17.5,10.2,28.1,10.2c7.8,0,15-1.8,21.6-5.5
			c6.6-3.7,11.8-8.7,15.8-15.1l14.2,8.2c-5.4,8.8-12.7,15.8-21.8,21.1c-9.1,5.3-19,7.9-29.8,7.9c-10.9,0-21-2.7-30.2-8.2
			c-9.3-5.4-16.6-12.8-22.1-22.1c-5.4-9.3-8.2-19.4-8.2-30.2c0-11,2.7-21.2,8.2-30.4c5.4-9.2,12.8-16.5,22.1-22
			c9.3-5.4,19.4-8.2,30.2-8.2c10.9,0,21,2.7,30.2,8.2c9.3,5.4,16.6,12.8,22.1,22c5.4,9.2,8.2,19.3,8.2,30.4c0,1.9-0.2,4.6-0.5,8.2
			H461z M483.6,112.6c-6.7,3.3-12.2,7.8-16.3,13.4c-4.2,5.7-6.2,11.8-6.2,18.4h86.4c0-6.6-2.1-12.7-6.2-18.4
			c-4.2-5.7-9.6-10.2-16.2-13.4c-6.6-3.3-13.6-4.9-20.8-4.9C497.2,107.7,490.3,109.3,483.6,112.6z"/>
		<path class="st13" d="M676.2,106.5h-72.6v104.6H587V106.5h-19.9V90.2H587V51.5h16.6v38.6h72.6V106.5z"/>
		<path class="st13" d="M677,106.5c-7.5,0-14,2.7-19.4,8.2c-5.4,5.4-8.2,11.9-8.2,19.4v77h-16.3v-77c0-8.6,2.3-16.5,6.8-23.6
			c4.6-7.1,10.5-12.4,17.9-16l0.5-0.2c5.9-2.7,12.2-4.1,18.7-4.1c10.2,0,19.4,3.1,27.4,9.4l-16.3,9.4
			C684.4,107.3,680.7,106.5,677,106.5z"/>
		<path class="st13" d="M707.2,160c1.9,10.2,7,18.8,15.1,25.6c8.2,6.8,17.5,10.2,28.1,10.2c7.8,0,15-1.8,21.6-5.5
			c6.6-3.7,11.8-8.7,15.8-15.1l14.2,8.2c-5.4,8.8-12.7,15.8-21.8,21.1c-9.1,5.3-19,7.9-29.8,7.9c-10.9,0-21-2.7-30.2-8.2
			c-9.3-5.4-16.6-12.8-22.1-22.1c-5.4-9.3-8.2-19.4-8.2-30.2c0-11,2.7-21.2,8.2-30.4c5.4-9.2,12.8-16.5,22.1-22
			c9.3-5.4,19.4-8.2,30.2-8.2c10.9,0,21,2.7,30.2,8.2c9.3,5.4,16.6,12.8,22.1,22c5.4,9.2,8.2,19.3,8.2,30.4c0,1.9-0.2,4.6-0.5,8.2
			H707.2z M729.8,112.6c-6.7,3.3-12.2,7.8-16.3,13.4c-4.2,5.7-6.2,11.8-6.2,18.4h86.4c0-6.6-2.1-12.7-6.2-18.4
			c-4.2-5.7-9.6-10.2-16.2-13.4c-6.6-3.3-13.6-4.9-20.8-4.9C743.4,107.7,736.5,109.3,729.8,112.6z"/>
		<path class="st13" d="M833,160c1.9,10.2,7,18.8,15.1,25.6c8.2,6.8,17.5,10.2,28.1,10.2c7.8,0,15-1.8,21.6-5.5
			c6.6-3.7,11.8-8.7,15.8-15.1l14.2,8.2c-5.4,8.8-12.7,15.8-21.8,21.1c-9.1,5.3-19,7.9-29.8,7.9c-10.9,0-21-2.7-30.2-8.2
			c-9.3-5.4-16.6-12.8-22.1-22.1c-5.4-9.3-8.2-19.4-8.2-30.2c0-11,2.7-21.2,8.2-30.4c5.4-9.2,12.8-16.5,22.1-22
			c9.3-5.4,19.4-8.2,30.2-8.2c10.9,0,21,2.7,30.2,8.2c9.3,5.4,16.6,12.8,22.1,22c5.4,9.2,8.2,19.3,8.2,30.4c0,1.9-0.2,4.6-0.5,8.2
			H833z M855.6,112.6c-6.7,3.3-12.2,7.8-16.3,13.4c-4.2,5.7-6.2,11.8-6.2,18.4h86.4c0-6.6-2.1-12.7-6.2-18.4
			c-4.2-5.7-9.6-10.2-16.2-13.4c-6.6-3.3-13.6-4.9-20.8-4.9C869.2,107.7,862.3,109.3,855.6,112.6z"/>
	</g>
</g>
<g id="dark">
	<rect x="63.3" y="247.9" class="st14" width="873.4" height="51.3"/>
	<text transform="matrix(1 0 0 1 211.5181 285.0703)" class="st15 st9 st10 st11">Marketplace</text>
	<g id="market">
		<path class="st16" d="M249.5,285.1v-29.2l-11.1,16h-3.8l-11-16v29.2h-5v-37.2h5.5l12.4,18l12.4-18h5.6v37.2H249.5z"/>
		<path class="st16" d="M309.3,285.1v-4.3c-1.2,1.4-2.6,2.5-4.1,3.3c-1.6,0.8-3.2,1.2-5,1.2c-1.9,0-3.8-0.4-5.5-1.1
			c-1.7-0.7-3.2-1.7-4.5-3c-1.3-1.3-2.3-2.8-3.1-4.5c-0.7-1.7-1.1-3.6-1.1-5.5c0-1.9,0.4-3.7,1.1-5.5c0.7-1.7,1.7-3.3,3.1-4.6
			c1.3-1.3,2.8-2.3,4.5-3c1.7-0.7,3.5-1.1,5.5-1.1c1.8,0,3.5,0.4,5.1,1.1c1.6,0.7,2.9,1.8,4.1,3.1v-3.7h5v27.3H309.3z M296.7,262.9
			c-1.1,0.5-2.1,1.1-2.9,1.9c-0.8,0.8-1.5,1.8-1.9,2.9c-0.5,1.1-0.7,2.3-0.7,3.6c0,1.2,0.2,2.4,0.7,3.5c0.5,1.1,1.1,2.1,1.9,2.9
			c0.8,0.8,1.8,1.5,2.9,1.9c1.1,0.5,2.3,0.7,3.6,0.7s2.4-0.2,3.5-0.7c1.1-0.5,2.1-1.1,2.9-1.9c0.8-0.8,1.5-1.8,1.9-2.9
			c0.5-1.1,0.7-2.3,0.7-3.5c0-1.2-0.2-2.4-0.7-3.6c-0.5-1.1-1.1-2.1-1.9-2.9c-0.8-0.8-1.8-1.5-2.9-1.9c-1.1-0.5-2.3-0.7-3.5-0.7
			S297.8,262.4,296.7,262.9z"/>
		<path class="st16" d="M359,262.4c-0.9-0.4-1.7-0.6-2.4-0.6c-1.5,0-2.7,0.5-3.7,1.6c-1,1.1-1.6,2.4-1.6,3.9v17.8h-4.8v-17.8
			c0-2,0.5-3.9,1.5-5.5c1-1.7,2.4-3,4.2-3.9c1.3-0.6,2.8-1,4.3-1c1.2,0,2.4,0.2,3.5,0.7c1.1,0.4,2.3,1.2,3.5,2.2L359,262.4z"/>
		<path class="st16" d="M407.6,285.1l-8.5-10.4v10.4h-4.9v-37.2h4.9v16.1l7.6-7.2h7.3l-13.3,12.3l13.3,16H407.6z"/>
		<path class="st16" d="M447.1,273.2c0,0.9,0.3,1.8,1,2.8c0.7,1,1.4,1.8,2.3,2.5c1.6,1.2,3.4,1.8,5.5,1.8c3.3,0,6-1.6,8.1-4.8
			l4.3,2.5c-1.5,2.4-3.2,4.2-5.4,5.4c-2.1,1.3-4.5,1.9-7,1.9c-1.9,0-3.7-0.4-5.4-1.1c-1.7-0.7-3.2-1.7-4.5-3.1
			c-1.3-1.3-2.3-2.8-3.1-4.5c-0.7-1.7-1.1-3.5-1.1-5.4s0.4-3.7,1.1-5.5s1.7-3.3,3.1-4.6c1.3-1.3,2.8-2.3,4.5-3
			c1.7-0.7,3.6-1.1,5.5-1.1s3.7,0.4,5.5,1.1c1.7,0.7,3.2,1.7,4.5,3c2.8,2.8,4.1,6.1,4.1,9.9c0,0.7-0.1,1.4-0.2,2.1H447.1z
			 M451.5,262.7c-1.3,0.7-2.4,1.6-3.2,2.7c-0.8,1.1-1.2,2.3-1.2,3.5h17.5c0-1.2-0.4-2.4-1.2-3.5c-0.8-1.1-1.9-2-3.2-2.7
			c-1.3-0.7-2.8-1-4.3-1C454.3,261.7,452.9,262.1,451.5,262.7z"/>
		<path class="st16" d="M508.8,262.1v23h-4.8v-23h-4.2v-5h4.2v-9.2h4.8v9.2h4.2v5H508.8z"/>
		<path class="st16" d="M553.5,284.5c-1.4-0.7-2.7-1.8-3.9-3.3V297h-5v-39.3h5v3.9c1.2-1.4,2.5-2.6,4.1-3.4c1.6-0.9,3.3-1.3,5-1.3
			c1.9,0,3.7,0.4,5.5,1.1c1.7,0.7,3.2,1.8,4.5,3.1c1.3,1.3,2.3,2.9,3.1,4.6c0.7,1.7,1.1,3.6,1.1,5.5c0,1.9-0.4,3.8-1.1,5.5
			c-0.7,1.7-1.7,3.2-3.1,4.6c-1.3,1.3-2.8,2.3-4.5,3.1c-1.7,0.7-3.6,1.1-5.5,1.1C556.6,285.6,554.9,285.2,553.5,284.5z M555.2,262.8
			c-1.1,0.5-2.1,1.1-2.9,2c-0.8,0.9-1.5,1.9-2,3c-0.5,1.1-0.7,2.3-0.7,3.6c0,1.2,0.2,2.4,0.7,3.5c0.5,1.1,1.1,2.1,2,3
			c0.8,0.9,1.8,1.5,2.9,2c1.1,0.5,2.3,0.7,3.5,0.7c1.2,0,2.4-0.2,3.5-0.7s2.1-1.2,2.9-2c0.8-0.9,1.5-1.8,1.9-3s0.7-2.3,0.7-3.5
			c0-1.2-0.2-2.4-0.7-3.6c-0.5-1.1-1.1-2.1-1.9-3c-0.8-0.9-1.8-1.5-2.9-2c-1.1-0.5-2.3-0.7-3.5-0.7
			C557.5,262.1,556.4,262.3,555.2,262.8z"/>
		<path class="st16" d="M604.5,285.1v-37.2h4.5v37.2H604.5z"/>
		<path class="st16" d="M663.8,285.1v-4.3c-1.2,1.4-2.6,2.5-4.1,3.3c-1.6,0.8-3.2,1.2-5,1.2c-1.9,0-3.8-0.4-5.5-1.1
			c-1.7-0.7-3.2-1.7-4.5-3c-1.3-1.3-2.3-2.8-3.1-4.5c-0.7-1.7-1.1-3.6-1.1-5.5c0-1.9,0.4-3.7,1.1-5.5c0.7-1.7,1.7-3.3,3.1-4.6
			s2.8-2.3,4.5-3c1.7-0.7,3.5-1.1,5.5-1.1c1.8,0,3.5,0.4,5.1,1.1s2.9,1.8,4.1,3.1v-3.7h5v27.3H663.8z M651.1,262.9
			c-1.1,0.5-2.1,1.1-2.9,1.9c-0.8,0.8-1.5,1.8-1.9,2.9c-0.5,1.1-0.7,2.3-0.7,3.6c0,1.2,0.2,2.4,0.7,3.5s1.1,2.1,1.9,2.9
			c0.8,0.8,1.8,1.5,2.9,1.9c1.1,0.5,2.3,0.7,3.6,0.7c1.2,0,2.4-0.2,3.5-0.7c1.1-0.5,2.1-1.1,2.9-1.9c0.8-0.8,1.5-1.8,1.9-2.9
			s0.7-2.3,0.7-3.5c0-1.2-0.2-2.4-0.7-3.6c-0.5-1.1-1.1-2.1-1.9-2.9c-0.8-0.8-1.8-1.5-2.9-1.9c-1.1-0.5-2.3-0.7-3.5-0.7
			C653.4,262.2,652.2,262.4,651.1,262.9z"/>
		<path class="st16" d="M707.9,284.3c-1.7-0.7-3.2-1.7-4.5-3.1c-1.3-1.3-2.3-2.8-3-4.5c-0.7-1.7-1.1-3.6-1.1-5.5s0.4-3.7,1.1-5.5
			c0.7-1.7,1.7-3.2,3-4.5c1.3-1.3,2.8-2.3,4.5-3.1c1.7-0.7,3.5-1.1,5.4-1.1c4.4,0,8.1,1.9,11.2,5.6l-4.4,2.5
			c-1.9-2.1-4.2-3.1-6.8-3.1c-1.2,0-2.4,0.2-3.5,0.7c-1.1,0.5-2.1,1.1-2.9,1.9c-0.8,0.8-1.5,1.8-2,2.9c-0.5,1.1-0.7,2.3-0.7,3.5
			s0.2,2.4,0.7,3.5c0.5,1.1,1.1,2.1,2,2.9c0.8,0.8,1.8,1.5,2.9,1.9c1.1,0.5,2.3,0.7,3.5,0.7c2.6,0,4.9-1,6.8-3.1l4.4,2.5
			c-3.1,3.7-6.8,5.6-11.2,5.6C711.4,285.4,709.6,285,707.9,284.3z"/>
		<path class="st16" d="M759.2,273.2c0,0.9,0.3,1.8,1,2.8c0.7,1,1.4,1.8,2.3,2.5c1.6,1.2,3.4,1.8,5.5,1.8c3.3,0,6-1.6,8.1-4.8
			l4.3,2.5c-1.5,2.4-3.2,4.2-5.4,5.4c-2.1,1.3-4.5,1.9-7,1.9c-1.9,0-3.7-0.4-5.4-1.1c-1.7-0.7-3.2-1.7-4.5-3.1
			c-1.3-1.3-2.3-2.8-3.1-4.5c-0.7-1.7-1.1-3.5-1.1-5.4s0.4-3.7,1.1-5.5c0.7-1.7,1.7-3.3,3.1-4.6c1.3-1.3,2.8-2.3,4.5-3
			c1.7-0.7,3.6-1.1,5.5-1.1c1.9,0,3.7,0.4,5.5,1.1c1.7,0.7,3.2,1.7,4.5,3c2.8,2.8,4.1,6.1,4.1,9.9c0,0.7-0.1,1.4-0.2,2.1H759.2z
			 M763.6,262.7c-1.3,0.7-2.4,1.6-3.2,2.7c-0.8,1.1-1.2,2.3-1.2,3.5h17.5c0-1.2-0.4-2.4-1.2-3.5s-1.9-2-3.2-2.7s-2.8-1-4.3-1
			S765,262.1,763.6,262.7z"/>
	</g>
	<g id="tree_2_">
		<g>
			<line class="st12" x1="137.8" y1="196" x2="137.8" y2="177.4"/>
			<g>
				<path class="st12" d="M138.5,196c0-5.5,0-10.9,0-16.4c0-0.8,0-1.5,0-2.3c0-1-1.5-1-1.5,0c0,5.5,0,10.9,0,16.4c0,0.8,0,1.5,0,2.3
					C137,197,138.5,197,138.5,196L138.5,196z"/>
			</g>
		</g>
		<g>
			<path class="st12" d="M168.7,144.8c0,0-35.5-1.5-30.8,32.4C137.9,177.2,165.8,186,168.7,144.8z"/>
			<g>
				<path class="st12" d="M168.7,144.5c-4-0.2-8.3,0.5-12.1,1.6c-7.3,2.1-14,6.5-17.2,13.6c-2.5,5.5-2.6,11.7-1.8,17.6
					c0,0.1,0.1,0.2,0.3,0.3c3.1,1,6.7,1,9.9,0.5c7.3-1.2,13-6.1,16.4-12.6c3.2-6.4,4.5-13.6,5-20.7c0-0.5-0.7-0.5-0.8,0
					c-0.7,10-3,21.9-11.4,28.5c-4.3,3.4-9.9,4.7-15.4,4.1c-0.8-0.1-1.5-0.2-2.3-0.3c-0.2,0-1-0.1-1.2-0.3c0,0-0.1,0-0.1,0
					c0,0,0.2-0.5,0.2-0.5c0-0.4-0.1-0.9-0.1-1.3c-0.1-1.5-0.2-3-0.2-4.5c0.1-2.5,0.4-5.1,1.1-7.5c2.3-7.8,8.5-13,16-15.6
					c2.8-1,5.8-1.6,8.7-1.9c1.6-0.2,3.2-0.1,4.8-0.3c0.1,0,0.2,0,0.2,0C169.1,145.2,169.1,144.5,168.7,144.5z"/>
			</g>
		</g>
		<g>
			<path class="st12" d="M137.8,177.4c-35.7-28.3,0-59.6,0-59.6c9.8,11.9,11.8,15.8,14,23.8C122,153.4,137.8,177.4,137.8,177.4z"/>
			<g>
				<path class="st12" d="M138.1,177.1c-5.6-4.5-10.7-9.9-13.5-16.7c-2.1-5-2.7-10.5-1.9-15.9c1.4-8.4,5.9-16.1,11.5-22.4
					c1.2-1.4,2.5-2.8,3.9-4c-0.2,0-0.4,0-0.5,0c3.5,4.2,7.1,8.5,9.8,13.3c1.9,3.3,3.1,6.7,4.2,10.3c0.1-0.2,0.2-0.3,0.3-0.5
					c-7.9,3.2-15.9,8.5-17.9,17.3c-1.2,5.3-0.2,10.8,2,15.7c0.5,1.1,1,2.2,1.7,3.3C137.7,178,138.4,177.6,138.1,177.1
					c-5-7.7-5.8-18.6,0.3-26c3.5-4.3,8.5-7.1,13.6-9.2c0.2-0.1,0.3-0.2,0.3-0.5c-1-3.7-2.3-7.2-4.2-10.5c-2.8-4.8-6.4-9.2-9.9-13.4
					c-0.1-0.2-0.4-0.1-0.5,0c-4,3.5-7.4,8-10.2,12.6c-5.2,8.7-7.6,19-4.2,28.8c2.6,7.6,8.2,13.8,14.4,18.7
					C137.9,177.9,138.4,177.4,138.1,177.1z"/>
			</g>
		</g>
	</g>
	<g>
		<path d="M103.4,201.8c-12.3-7.2-22.1-17-29.3-29.3c-7.2-12.3-10.8-25.8-10.8-40.6c0-14.7,3.6-28.3,10.8-40.7
			c7.2-12.4,17-22.2,29.4-29.5c12.4-7.3,25.9-10.9,40.4-10.9c11.8,0,23.1,2.4,33.8,7.3c10.7,4.9,19.8,11.9,27.4,21l-12.5,10.6
			c-6.1-7-13.4-12.5-22-16.4c-8.6-3.9-17.5-5.9-26.8-5.9c-11.5,0-22.2,2.9-32,8.8c-9.8,5.8-17.6,13.7-23.4,23.6
			c-5.8,9.9-8.6,20.6-8.6,32.2s2.9,22.2,8.6,32s13.6,17.6,23.4,23.4s20.5,8.6,32,8.6c9.3,0,18.2-2,26.8-5.9
			c8.6-3.9,15.9-9.4,22-16.4l12.5,10.6c-7.5,9-16.6,15.9-27.4,20.9c-10.7,5-22,7.4-33.8,7.4C129.2,212.6,115.7,209,103.4,201.8z"/>
		<path d="M236.2,205.7c-7.3-4.2-13.1-10-17.4-17.3c-4.3-7.3-6.5-15.2-6.5-23.9V91.1h16.6v73.4c0,5.6,1.4,10.8,4.2,15.6
			c2.8,4.8,6.6,8.6,11.4,11.4c4.8,2.8,10,4.2,15.6,4.2c5.6,0,10.8-1.4,15.6-4.2c4.8-2.8,8.6-6.6,11.4-11.4c2.8-4.8,4.2-10,4.2-15.6
			V91.1h16.3v118.8h-16.3v-11.5c-4,4.5-8.7,7.9-14,10.2c-5.4,2.3-11.1,3.5-17.2,3.5C251.5,212.1,243.5,210,236.2,205.7z"/>
		<path d="M335.7,51.8v61.4c11-14.9,26-22.3,44.9-22.3c11,0,21.2,2.7,30.5,8.2c9.3,5.4,16.6,12.8,22.1,22.2
			c5.4,9.4,8.2,19.5,8.2,30.4c0,10.9-2.7,21-8.2,30.4c-5.4,9.4-12.8,16.8-22.1,22.2c-9.3,5.4-19.4,8.2-30.5,8.2
			c-18.2,0-33.2-7.8-44.9-23.5v22.3h-16.1V51.8H335.7z M342.2,173.8c4,6.8,9.4,12.2,16.2,16.2c6.8,4,14.2,6,22.2,6
			c8,0,15.4-2,22.1-6c6.7-4,12.1-9.4,16.1-16.2c4-6.8,6-14.2,6-22.2c0-8-2-15.4-6-22.1c-4-6.7-9.4-12.1-16.1-16.1
			c-6.7-4-14.1-6-22.1-6c-8,0-15.4,2-22.2,6c-6.8,4-12.2,9.4-16.2,16.1c-4,6.7-6,14.1-6,22.1C336.2,159.6,338.2,167,342.2,173.8z"/>
		<path d="M461,160c1.9,10.2,7,18.8,15.1,25.6c8.2,6.8,17.5,10.2,28.1,10.2c7.8,0,15-1.8,21.6-5.5c6.6-3.7,11.8-8.7,15.8-15.1
			l14.2,8.2c-5.4,8.8-12.7,15.8-21.8,21.1c-9.1,5.3-19,7.9-29.8,7.9c-10.9,0-21-2.7-30.2-8.2c-9.3-5.4-16.6-12.8-22.1-22.1
			c-5.4-9.3-8.2-19.4-8.2-30.2c0-11,2.7-21.2,8.2-30.4c5.4-9.2,12.8-16.5,22.1-22c9.3-5.4,19.4-8.2,30.2-8.2c10.9,0,21,2.7,30.2,8.2
			c9.3,5.4,16.6,12.8,22.1,22c5.4,9.2,8.2,19.3,8.2,30.4c0,1.9-0.2,4.6-0.5,8.2H461z M483.6,112.6c-6.7,3.3-12.2,7.8-16.3,13.4
			c-4.2,5.7-6.2,11.8-6.2,18.4h86.4c0-6.6-2.1-12.7-6.2-18.4c-4.2-5.7-9.6-10.2-16.2-13.4c-6.6-3.3-13.6-4.9-20.8-4.9
			C497.2,107.7,490.3,109.3,483.6,112.6z"/>
		<path d="M676.2,106.5h-72.6v104.6H587V106.5h-19.9V90.2H587V51.5h16.6v38.6h72.6V106.5z"/>
		<path d="M677,106.5c-7.5,0-14,2.7-19.4,8.2c-5.4,5.4-8.2,11.9-8.2,19.4v77h-16.3v-77c0-8.6,2.3-16.5,6.8-23.6
			c4.6-7.1,10.5-12.4,17.9-16l0.5-0.2c5.9-2.7,12.2-4.1,18.7-4.1c10.2,0,19.4,3.1,27.4,9.4l-16.3,9.4
			C684.4,107.3,680.7,106.5,677,106.5z"/>
		<path d="M707.2,160c1.9,10.2,7,18.8,15.1,25.6c8.2,6.8,17.5,10.2,28.1,10.2c7.8,0,15-1.8,21.6-5.5c6.6-3.7,11.8-8.7,15.8-15.1
			l14.2,8.2c-5.4,8.8-12.7,15.8-21.8,21.1c-9.1,5.3-19,7.9-29.8,7.9c-10.9,0-21-2.7-30.2-8.2c-9.3-5.4-16.6-12.8-22.1-22.1
			c-5.4-9.3-8.2-19.4-8.2-30.2c0-11,2.7-21.2,8.2-30.4c5.4-9.2,12.8-16.5,22.1-22c9.3-5.4,19.4-8.2,30.2-8.2c10.9,0,21,2.7,30.2,8.2
			c9.3,5.4,16.6,12.8,22.1,22c5.4,9.2,8.2,19.3,8.2,30.4c0,1.9-0.2,4.6-0.5,8.2H707.2z M729.8,112.6c-6.7,3.3-12.2,7.8-16.3,13.4
			c-4.2,5.7-6.2,11.8-6.2,18.4h86.4c0-6.6-2.1-12.7-6.2-18.4c-4.2-5.7-9.6-10.2-16.2-13.4c-6.6-3.3-13.6-4.9-20.8-4.9
			C743.4,107.7,736.5,109.3,729.8,112.6z"/>
		<path d="M833,160c1.9,10.2,7,18.8,15.1,25.6c8.2,6.8,17.5,10.2,28.1,10.2c7.8,0,15-1.8,21.6-5.5c6.6-3.7,11.8-8.7,15.8-15.1
			l14.2,8.2c-5.4,8.8-12.7,15.8-21.8,21.1c-9.1,5.3-19,7.9-29.8,7.9c-10.9,0-21-2.7-30.2-8.2c-9.3-5.4-16.6-12.8-22.1-22.1
			c-5.4-9.3-8.2-19.4-8.2-30.2c0-11,2.7-21.2,8.2-30.4c5.4-9.2,12.8-16.5,22.1-22c9.3-5.4,19.4-8.2,30.2-8.2c10.9,0,21,2.7,30.2,8.2
			c9.3,5.4,16.6,12.8,22.1,22c5.4,9.2,8.2,19.3,8.2,30.4c0,1.9-0.2,4.6-0.5,8.2H833z M855.6,112.6c-6.7,3.3-12.2,7.8-16.3,13.4
			c-4.2,5.7-6.2,11.8-6.2,18.4h86.4c0-6.6-2.1-12.7-6.2-18.4c-4.2-5.7-9.6-10.2-16.2-13.4c-6.6-3.3-13.6-4.9-20.8-4.9
			C869.2,107.7,862.3,109.3,855.6,112.6z"/>
	</g>
</g>
</svg>
